<svg width="50" height="50" viewBox="0 0 50 50" fill="none" xmlns="http://www.w3.org/2000/svg">
<g clip-path="url(#clip0_92_145)">
<path d="M41.6667 0H8.33333C6.1232 0 4.00358 0.877974 2.44078 2.44078C0.877974 4.00358 0 6.1232 0 8.33333L0 33.3333C0 35.5435 0.877974 37.6631 2.44078 39.2259C4.00358 40.7887 6.1232 41.6667 8.33333 41.6667H14.5833C15.1359 41.6667 15.6658 41.4472 16.0565 41.0565C16.4472 40.6658 16.6667 40.1359 16.6667 39.5833C16.6667 39.0308 16.4472 38.5009 16.0565 38.1102C15.6658 37.7195 15.1359 37.5 14.5833 37.5H8.33333C7.22826 37.5 6.16846 37.061 5.38705 36.2796C4.60565 35.4982 4.16667 34.4384 4.16667 33.3333V8.33333C4.16667 7.22827 4.60565 6.16846 5.38705 5.38706C6.16846 4.60565 7.22826 4.16667 8.33333 4.16667H41.6667C42.7717 4.16667 43.8315 4.60565 44.6129 5.38706C45.3943 6.16846 45.8333 7.22827 45.8333 8.33333V33.3333C45.8333 34.4384 45.3943 35.4982 44.6129 36.2796C43.8315 37.061 42.7717 37.5 41.6667 37.5H35.4167C34.8641 37.5 34.3342 37.7195 33.9435 38.1102C33.5528 38.5009 33.3333 39.0308 33.3333 39.5833C33.3333 40.1359 33.5528 40.6658 33.9435 41.0565C34.3342 41.4472 34.8641 41.6667 35.4167 41.6667H41.6667C43.8768 41.6667 45.9964 40.7887 47.5592 39.2259C49.122 37.6631 50 35.5435 50 33.3333V8.33333C50 6.1232 49.122 4.00358 47.5592 2.44078C45.9964 0.877974 43.8768 0 41.6667 0Z" fill="#232323"/>
<path d="M8.875 31.3167C9.24642 31.7253 9.76491 31.9698 10.3165 31.9964C10.8681 32.0229 11.4077 31.8294 11.8167 31.4583L20.4479 23.625C21.7957 24.5242 23.3797 25.0041 25 25.0041C26.6203 25.0041 28.2042 24.5242 29.5521 23.625L38.1833 31.4583C38.595 31.8112 39.128 31.9897 39.6692 31.9559C40.2104 31.9221 40.717 31.6786 41.0816 31.2772C41.4461 30.8758 41.6398 30.3481 41.6214 29.8062C41.6031 29.2643 41.3742 28.7508 40.9833 28.375L32.7437 20.8937L40.9854 13.3937C41.3943 13.0219 41.6387 12.5028 41.6649 11.9508C41.6911 11.3987 41.4969 10.8589 41.125 10.45C40.7531 10.0411 40.2341 9.79671 39.682 9.77053C39.13 9.74435 38.5901 9.93855 38.1812 10.3104L27.8125 19.7479C27.0433 20.4484 26.0404 20.8366 25 20.8366C23.9596 20.8366 22.9567 20.4484 22.1875 19.7479L11.8187 10.3125C11.4099 9.94064 10.87 9.74644 10.318 9.77261C9.7659 9.79879 9.24685 10.0432 8.875 10.4521C8.50314 10.861 8.30894 11.4008 8.33512 11.9529C8.3613 12.5049 8.60571 13.024 9.01458 13.3958L17.2583 20.8958L9.01667 28.375C8.60799 28.7464 8.36351 29.2649 8.33694 29.8165C8.31038 30.3681 8.50391 30.9077 8.875 31.3167Z" fill="#232323"/>
<path d="M22.3063 36.8896L22.9167 36.2792V47.9167C22.9167 48.4692 23.1362 48.9991 23.5269 49.3898C23.9176 49.7805 24.4475 50 25 50C25.5525 50 26.0824 49.7805 26.4731 49.3898C26.8638 48.9991 27.0833 48.4692 27.0833 47.9167V36.2792L27.6938 36.8896C28.0867 37.2691 28.6129 37.4791 29.1592 37.4743C29.7054 37.4696 30.2279 37.2505 30.6142 36.8642C31.0005 36.4779 31.2196 35.9554 31.2243 35.4092C31.2291 34.8629 31.0191 34.3367 30.6396 33.9438L26.4729 29.7771C26.0822 29.3865 25.5524 29.1671 25 29.1671C24.4476 29.1671 23.9178 29.3865 23.5271 29.7771L19.3604 33.9438C18.9809 34.3367 18.7709 34.8629 18.7757 35.4092C18.7804 35.9554 18.9995 36.4779 19.3858 36.8642C19.7721 37.2505 20.2946 37.4696 20.8408 37.4743C21.3871 37.4791 21.9133 37.2691 22.3063 36.8896Z" fill="#232323"/>
</g>
<defs>
<clipPath id="clip0_92_145">
<rect width="50" height="50" fill="white"/>
</clipPath>
</defs>
</svg>
